<svg width="32" height="32" viewBox="0 0 32 32" fill="none" xmlns="http://www.w3.org/2000/svg">
<rect width="32" height="32" rx="6" fill="#F1F1F1"/>
<path d="M7 21C7 21.5523 7.44772 22 8 22H12C12.5523 22 13 21.5523 13 21C13 20.4477 12.5523 20 12 20H8C7.44772 20 7 20.4477 7 21ZM8 10C7.44772 10 7 10.4477 7 11C7 11.5523 7.44772 12 8 12H24C24.5523 12 25 11.5523 25 11C25 10.4477 24.5523 10 24 10H8ZM7 16C7 16.5523 7.44772 17 8 17H18C18.5523 17 19 16.5523 19 16C19 15.4477 18.5523 15 18 15H8C7.44772 15 7 15.4477 7 16Z" fill="#60607B"/>
<circle cx="23" cy="23" r="4" fill="#67CD00"/>
</svg>
