<svg width="25" height="24" viewBox="0 0 25 24" fill="none" xmlns="http://www.w3.org/2000/svg">
<g clip-path="url(#clip0_1_128)">
<path d="M16.125 14H15.335L15.055 13.73C16.035 12.59 16.625 11.11 16.625 9.5C16.625 5.91 13.715 3 10.125 3C6.535 3 3.625 5.91 3.625 9.5C3.625 13.09 6.535 16 10.125 16C11.735 16 13.215 15.41 14.355 14.43L14.625 14.71V15.5L19.625 20.49L21.115 19L16.125 14ZM10.125 14C7.635 14 5.625 11.99 5.625 9.5C5.625 7.01 7.635 5 10.125 5C12.615 5 14.625 7.01 14.625 9.5C14.625 11.99 12.615 14 10.125 14Z" fill="#60607B"/>
</g>
<defs>
<clipPath id="clip0_1_128">
<rect width="24" height="24" fill="white" transform="translate(0.625)"/>
</clipPath>
</defs>
</svg>
