<svg width="25" height="24" viewBox="0 0 25 24" fill="none" xmlns="http://www.w3.org/2000/svg">
<g id="local_mall" clip-path="url(#clip0_1_131)">
<path id="Vector" d="M19.375 6H17.375C17.375 3.24 15.135 1 12.375 1C9.615 1 7.375 3.24 7.375 6H5.375C4.275 6 3.375 6.9 3.375 8V20C3.375 21.1 4.275 22 5.375 22H19.375C20.475 22 21.375 21.1 21.375 20V8C21.375 6.9 20.475 6 19.375 6ZM12.375 3C14.035 3 15.375 4.34 15.375 6H9.375C9.375 4.34 10.715 3 12.375 3ZM19.375 20H5.375V8H19.375V20ZM12.375 12C10.715 12 9.375 10.66 9.375 9H7.375C7.375 11.76 9.615 14 12.375 14C15.135 14 17.375 11.76 17.375 9H15.375C15.375 10.66 14.035 12 12.375 12Z" fill="#60607B"/>
</g>
<defs>
<clipPath id="clip0_1_131">
<rect width="24" height="24" fill="white" transform="translate(0.375)"/>
</clipPath>
</defs>
</svg>
